<?xml version="1.0" encoding="UTF-8"?>
<svg id="_Слой_2" data-name="Слой 2" xmlns="http://www.w3.org/2000/svg" viewBox="0 0 2129.21 423.1">
  <defs>
    <style>
      .cls-1 {
        fill: #0098cc;
      }

      .cls-2 {
        fill: #fff;
        font-family: Unbounded-Regular, Unbounded;
        font-size: 354.57px;
        font-variation-settings: 'wght' 400;
      }
    </style>
  </defs>
  <g id="_Слой_1-2" data-name="Слой 1">
    <g id="_3_logo" data-name="3 logo">
      <g>
        <circle class="cls-1" cx="194.27" cy="194.27" r="194.27"/>
        <path d="M48.2,170.74c6.05,15.35,18.16,33.45,35.45,46.42,25.65,19.25,50.81,16.95,65.52-2.65,13.63-18.16,11.04-36.32-7.62-66.1-23.27-35.03-30.55-66.17-10-93.56,22.71-30.27,64.66-33.93,102.42-5.6,19.89,14.92,120.38,134.25,125.35,145.63l-22.27,15.28c-3.75-8.22-101.93-127.61-119.51-140.8-26.52-19.9-48.5-11.62-58.45,1.64-13.63,18.16-8.51,35.96,10.51,66.46,23.34,37.34,28.17,65.74,6.75,94.28-22.49,29.98-64.16,39.27-109.99,4.88-18.74-14.06-27.76-37.8-40.28-49.6l22.13-16.28Z"/>
        <path d="M48.2,170.74c6.05,15.35,107.69,137.34,124.98,150.32,25.65,19.25,50.81,16.95,65.52-2.65,13.63-18.16,11.04-36.32-7.62-66.1-23.27-35.03-30.55-66.17-10-93.56,22.71-30.27,64.66-33.93,102.42-5.6,19.89,14.92,23.13,31.72,35.81,41.74l-22.27,15.28c-3.75-8.22-12.39-23.72-29.98-36.91-26.52-19.9-48.5-11.62-58.45,1.64-13.63,18.16-8.54,35.98,10.51,66.46,23.34,37.34,28.17,65.74,6.75,94.28-22.49,29.98-64.16,39.27-109.99,4.88-18.74-14.06-124.63-138.79-129.81-153.49l22.13-16.28Z"/>
      </g>
      <text class="cls-2" transform="translate(445.89 321.69) scale(.96 1)"><tspan x="0" y="0">SainSan</tspan></text>
    </g>
  </g>
</svg>